<?xml version="1.0" standalone="no"?>
<!DOCTYPE svg PUBLIC "-//W3C//DTD SVG 20010904//EN"
 "http://www.w3.org/TR/2001/REC-SVG-20010904/DTD/svg10.dtd">
<svg version="1.0" xmlns="http://www.w3.org/2000/svg"
 width="1563.000000pt" height="1563.000000pt" viewBox="0 0 1563.000000 1563.000000"
 preserveAspectRatio="xMidYMid meet">

<g transform="translate(0.000000,1563.000000) scale(0.100000,-0.100000)"
fill="#000000" stroke="none">
<path d="M5180 13639 c-36 -17 -92 -44 -125 -59 -244 -115 -574 -296 -703
-389 -17 -11 -33 -21 -37 -21 -7 0 -127 -80 -135 -90 -3 -3 -43 -31 -90 -62
-340 -225 -875 -706 -1160 -1043 -51 -60 -104 -123 -119 -139 -109 -121 -462
-619 -546 -771 -15 -27 -36 -60 -46 -74 -10 -13 -19 -27 -19 -32 0 -5 -22 -46
-49 -91 -131 -223 -312 -613 -424 -913 -77 -207 -205 -618 -213 -683 -1 -13
-16 -78 -32 -145 -55 -222 -102 -517 -143 -887 -17 -151 -13 -946 6 -1120 37
-354 78 -615 137 -870 18 -74 33 -142 33 -150 11 -96 250 -814 291 -875 8 -11
14 -26 14 -35 0 -8 11 -37 25 -65 13 -27 47 -102 76 -165 46 -103 176 -359
229 -450 11 -19 32 -57 46 -85 15 -27 30 -52 34 -55 4 -3 15 -21 25 -40 19
-37 239 -371 302 -457 87 -119 246 -324 272 -350 15 -15 77 -84 136 -153 133
-153 382 -403 530 -530 61 -52 130 -113 155 -137 25 -23 97 -81 160 -129 63
-48 133 -102 155 -119 22 -18 72 -54 110 -81 39 -26 93 -63 120 -82 28 -19 49
-38 47 -43 -1 -5 6 -9 16 -9 9 0 42 -16 72 -36 92 -61 264 -162 435 -256 101
-55 414 -206 492 -237 28 -11 70 -28 94 -39 41 -18 72 -30 284 -110 149 -57
455 -149 635 -191 214 -50 421 -94 484 -101 34 -4 142 -19 241 -33 332 -47
815 -67 1130 -48 105 7 251 16 325 21 447 28 1145 186 1635 371 210 79 244 93
475 195 66 29 230 112 395 198 118 63 517 306 552 337 10 9 63 47 118 84 55
37 102 71 105 76 3 5 56 46 116 91 110 82 135 103 391 331 138 123 369 360
493 507 39 47 79 92 88 100 27 24 209 255 286 364 120 167 306 449 306 461 0
4 14 26 30 50 17 24 30 46 30 49 0 2 23 44 51 93 71 121 288 564 329 671 10
26 37 94 60 152 52 133 97 258 120 335 9 33 27 89 38 125 33 101 84 282 88
308 1 12 16 80 33 150 37 156 85 424 106 592 44 362 46 398 46 840 0 438 -5
530 -46 830 -7 58 -19 143 -25 188 -21 157 -26 122 -22 -170 3 -170 0 -360 -7
-453 -7 -88 -14 -193 -16 -234 -4 -66 -36 -300 -66 -481 -6 -36 -22 -112 -35
-169 -13 -57 -23 -106 -21 -108 3 -2 -6 -43 -20 -91 -13 -48 -30 -117 -38
-153 -8 -36 -24 -99 -35 -140 -12 -41 -25 -90 -30 -109 -13 -61 -143 -457
-165 -505 -7 -16 -17 -43 -21 -60 -4 -16 -18 -55 -31 -85 -14 -30 -31 -73 -38
-95 -47 -143 -273 -629 -406 -875 -32 -58 -137 -243 -154 -271 -5 -9 -23 -39
-39 -65 -85 -145 -284 -437 -408 -602 -250 -331 -563 -675 -805 -885 l-21 -18
9 41 c11 47 24 190 40 434 11 164 9 200 -17 565 -3 35 -14 107 -25 160 -42
195 -49 233 -44 241 2 4 19 10 37 13 129 25 254 70 438 160 253 124 419 263
528 442 46 74 113 210 122 248 5 17 20 70 35 117 36 117 40 274 9 317 -24 32
-77 65 -144 89 -25 9 -54 20 -65 25 -43 19 -222 91 -252 101 -30 10 -33 16
-58 112 -39 152 -54 193 -105 291 -80 157 -138 234 -280 375 -115 116 -149
143 -231 188 -52 28 -131 65 -175 81 -101 37 -117 57 -122 153 -5 85 10 185
45 288 14 41 28 93 32 115 13 74 -23 141 -95 176 -44 21 -54 22 -223 16 -97
-4 -198 -11 -226 -17 -27 -6 -88 -17 -135 -25 -153 -27 -344 -92 -475 -162
-16 -8 -56 -30 -88 -47 -33 -17 -107 -69 -165 -116 -189 -152 -357 -387 -485
-680 -50 -114 -77 -179 -77 -187 0 -4 -13 -39 -29 -78 -32 -75 -112 -308 -181
-525 -24 -74 -55 -173 -70 -220 -15 -47 -36 -113 -45 -148 -10 -35 -21 -65
-25 -67 -3 -2 -12 13 -19 33 -6 20 -23 62 -36 92 -50 115 -96 228 -100 246 -2
11 -17 52 -34 92 -16 39 -28 72 -25 72 2 0 -3 17 -12 38 -25 58 -171 509 -179
550 -2 12 -15 60 -29 105 -14 45 -28 98 -31 117 -3 19 -17 74 -31 121 -13 47
-27 101 -29 121 -2 19 -18 90 -35 158 -16 69 -30 137 -30 152 0 29 -11 21 240
183 482 312 739 504 818 609 58 77 53 65 71 179 12 71 -11 202 -53 304 -34 84
-99 217 -116 238 -4 6 -20 33 -36 60 -87 157 -426 632 -559 785 -77 87 -284
290 -361 351 -81 66 -211 158 -274 195 -25 15 -67 41 -95 59 -73 48 -327 173
-465 230 -99 40 -289 106 -345 120 -27 7 -86 22 -130 33 -171 43 -315 72 -401
81 -49 6 -134 15 -189 22 -125 15 -452 16 -565 1 -47 -6 -119 -16 -160 -21
-98 -13 -254 -59 -358 -104 -45 -20 -153 -85 -240 -145 -204 -140 -378 -252
-390 -252 -5 0 -20 -8 -33 -18 -39 -30 -301 -162 -322 -162 -7 0 -24 -6 -38
-14 -36 -19 -134 -50 -259 -82 -94 -24 -128 -27 -320 -31 -160 -4 -248 -1
-345 11 -222 27 -456 17 -554 -25 -93 -39 -202 -153 -215 -224 -3 -14 -11 -43
-18 -63 -16 -47 -16 -289 0 -392 7 -41 14 -95 17 -120 2 -25 16 -95 30 -155
15 -61 29 -121 31 -134 7 -34 51 -131 117 -254 47 -90 230 -269 386 -381 107
-76 183 -127 376 -251 42 -27 94 -63 115 -80 21 -16 62 -46 90 -65 237 -161
656 -531 737 -650 43 -64 103 -167 103 -176 0 -4 12 -36 26 -71 30 -77 54
-225 54 -337 0 -112 -26 -294 -56 -401 -34 -119 -113 -353 -131 -388 -8 -16
-16 -37 -18 -47 -2 -10 -13 -39 -25 -66 -12 -26 -28 -64 -35 -83 -7 -20 -34
-85 -60 -146 -26 -60 -54 -128 -61 -150 -8 -22 -21 -53 -29 -70 -25 -51 -96
-219 -100 -236 -2 -9 -12 -36 -23 -61 -12 -24 -32 -75 -46 -113 -15 -39 -30
-79 -36 -90 -12 -26 -69 -189 -81 -235 -6 -19 -22 -65 -36 -103 -13 -37 -26
-77 -28 -90 -1 -12 -14 -56 -28 -97 -14 -41 -28 -91 -31 -110 -3 -19 -17 -79
-31 -132 -14 -53 -28 -114 -31 -135 -2 -21 -16 -96 -30 -168 -24 -125 -33
-214 -54 -530 -10 -139 -6 -384 6 -464 l5 -34 -53 38 c-29 21 -60 46 -68 55
-8 9 -37 34 -65 56 -359 281 -768 709 -1061 1110 -90 123 -230 329 -279 410
-93 154 -139 234 -205 360 -21 39 -43 79 -48 90 -29 50 -142 296 -142 307 0 7
-6 21 -14 32 -16 24 -104 239 -112 274 -3 13 -11 35 -18 50 -13 25 -75 212
-129 386 -43 139 -152 618 -161 705 -3 25 -16 124 -30 220 -28 186 -44 450
-47 785 -4 336 13 601 56 855 8 47 17 108 19 135 5 49 44 243 51 255 2 3 6 28
9 55 14 117 160 624 251 870 79 212 110 290 178 445 58 133 199 420 267 545
18 33 43 78 55 100 76 139 289 482 345 555 10 14 51 70 89 125 280 397 689
862 1011 1149 176 157 371 321 465 391 44 33 94 70 110 82 132 100 464 322
535 358 40 21 87 55 74 55 -5 0 -38 -14 -74 -31z m1820 -3026 c80 -14 165 -29
190 -33 87 -14 297 -71 420 -114 202 -71 241 -86 291 -112 27 -13 53 -24 59
-24 21 0 279 -145 395 -223 326 -219 508 -410 862 -910 92 -131 210 -323 251
-410 45 -95 67 -190 57 -252 -6 -44 -14 -57 -76 -116 -37 -37 -123 -104 -190
-150 -66 -46 -135 -94 -153 -106 -57 -39 -394 -257 -492 -318 -53 -33 -121
-76 -152 -96 -90 -57 -263 -159 -268 -159 -3 0 -24 -13 -47 -29 -23 -15 -52
-31 -64 -35 -12 -4 -38 -18 -57 -31 -78 -53 -196 -107 -220 -101 -14 3 -43 30
-65 58 -22 29 -45 58 -51 65 -5 6 -19 33 -31 60 -22 49 -26 57 -54 128 -9 21
-25 96 -36 165 -32 191 -15 436 45 647 81 287 96 366 96 499 0 264 -106 525
-294 722 -39 41 -77 62 -42 23 30 -33 75 -138 87 -203 14 -80 5 -206 -25 -363
-13 -66 -27 -138 -31 -160 -4 -22 -20 -89 -36 -150 -17 -60 -43 -157 -58 -215
-79 -292 -95 -407 -88 -647 4 -169 7 -200 35 -303 44 -168 61 -209 154 -374
49 -89 177 -219 250 -256 75 -37 112 -38 231 -4 91 26 376 159 491 228 32 20
62 36 67 36 5 0 9 -12 9 -27 0 -30 43 -217 91 -398 17 -60 32 -121 34 -135 18
-96 203 -669 283 -875 15 -38 26 -70 24 -70 -2 0 11 -31 28 -70 18 -38 33 -78
35 -88 2 -10 18 -47 35 -83 16 -35 30 -67 30 -71 0 -4 9 -25 19 -47 11 -23 40
-87 66 -144 l47 -103 -28 -37 c-108 -144 -416 -385 -656 -512 -223 -118 -448
-227 -693 -334 -71 -32 -152 -68 -180 -81 -27 -12 -84 -38 -125 -56 -169 -76
-553 -272 -628 -321 -20 -14 -66 -42 -102 -63 -35 -21 -71 -44 -80 -51 -8 -7
-60 -46 -115 -87 -103 -76 -235 -200 -316 -297 -99 -118 -219 -314 -249 -406
-7 -21 -16 -43 -20 -49 -10 -15 -39 -96 -44 -125 -2 -14 -12 -54 -21 -90 -38
-146 -43 -209 -40 -495 1 -154 6 -289 10 -299 7 -17 6 -18 -11 -11 -10 4 -39
13 -64 20 -25 7 -74 25 -110 40 -36 15 -99 40 -140 57 -220 89 -466 207 -655
312 -44 25 -102 57 -130 72 -27 15 -68 39 -90 54 -22 15 -63 41 -91 58 l-50
32 -12 87 c-44 336 -40 708 13 1023 8 47 16 108 19 135 3 28 16 97 30 155 14
58 28 121 31 140 12 73 109 395 156 522 16 42 29 81 29 87 0 5 11 36 24 68 14
32 45 112 71 178 25 66 56 145 69 175 26 59 52 123 111 265 20 50 47 115 60
145 63 144 97 226 100 241 2 9 15 41 28 71 35 75 144 408 163 493 54 249 54
248 55 425 0 184 -8 245 -54 390 -62 194 -201 409 -377 579 -148 143 -401 352
-625 516 -63 46 -109 77 -301 206 -38 25 -80 53 -94 62 -14 9 -63 42 -110 73
-286 189 -452 399 -485 611 -6 37 -4 42 17 48 41 13 212 97 253 125 87 60 191
174 238 258 17 31 42 76 56 100 l26 42 140 4 c250 7 484 52 710 137 99 38 402
188 491 243 36 23 156 101 267 175 291 193 310 204 452 242 137 37 161 41 290
48 235 12 474 2 635 -26z m4276 -3094 c-34 -170 -28 -309 19 -433 49 -131 117
-197 247 -242 201 -69 326 -162 475 -355 58 -75 127 -214 147 -296 28 -112 57
-226 68 -261 18 -60 52 -88 156 -128 53 -20 102 -40 107 -44 6 -5 26 -13 45
-18 40 -12 148 -56 156 -64 12 -13 -31 -140 -79 -233 -54 -105 -145 -213 -236
-279 -74 -54 -286 -159 -411 -203 -112 -40 -263 -73 -331 -73 -57 0 -103 -18
-136 -52 -59 -61 -67 -118 -29 -207 35 -84 74 -216 91 -311 49 -271 49 -280
49 -545 0 -220 -4 -281 -23 -400 -12 -77 -26 -169 -30 -205 -7 -56 -24 -130
-72 -326 -9 -35 -22 -49 -92 -101 -85 -62 -178 -126 -301 -203 -39 -25 -89
-58 -111 -73 -22 -15 -43 -27 -48 -27 -4 0 -26 -12 -50 -27 -145 -93 -506
-270 -757 -371 -288 -116 -715 -254 -875 -282 -22 -4 -92 -19 -155 -33 -149
-33 -463 -82 -660 -101 -581 -58 -1007 -42 -1695 65 -104 16 -354 72 -465 103
l-56 16 -19 143 c-49 360 -3 702 130 967 98 195 283 405 495 562 117 86 297
199 337 212 13 4 29 13 35 20 23 22 421 213 692 332 56 24 118 53 138 64 20
11 41 20 46 20 19 0 365 167 493 238 37 21 86 48 110 61 247 133 537 362 678
536 180 221 261 381 361 715 17 58 45 146 62 195 16 50 32 99 34 109 2 11 15
49 29 87 14 37 28 78 31 92 4 24 17 62 91 262 14 39 41 106 60 150 19 44 36
87 38 95 4 16 57 129 80 170 8 14 26 46 40 72 39 73 139 209 198 270 59 61
177 150 252 190 148 78 391 154 540 168 44 4 86 8 94 9 10 1 12 -7 7 -30z"/>
<path d="M5765 9715 c-27 -8 -53 -14 -58 -15 -4 0 -28 -19 -52 -41 -104 -96
-105 -270 -3 -365 55 -51 88 -66 155 -72 110 -9 199 42 251 142 96 187 -90
409 -293 351z"/>
<path d="M11655 6037 c-40 -19 -90 -76 -105 -123 -18 -52 -6 -129 26 -175 32
-47 112 -89 168 -89 88 1 170 64 191 148 23 88 -5 169 -78 223 -38 28 -155 37
-202 16z"/>
<path d="M8993 11585 c-86 -43 -149 -134 -200 -285 -24 -73 -24 -293 0 -395 9
-38 21 -97 27 -130 36 -185 125 -399 204 -486 22 -25 49 -55 58 -67 10 -12 26
-22 37 -22 11 0 21 -6 23 -12 7 -19 65 14 193 108 210 155 381 322 497 487 32
45 62 87 67 93 21 26 94 172 113 228 11 34 23 91 26 128 4 59 2 72 -21 111
-55 93 -170 103 -314 28 -65 -34 -102 -64 -189 -151 -60 -60 -109 -108 -111
-107 -1 2 -9 54 -17 117 -23 172 -97 346 -156 365 -10 3 -32 0 -47 -8 -23 -12
-31 -13 -48 -2 -42 28 -87 27 -142 0z m27 -155 c12 -8 11 -16 -9 -62 -13 -29
-33 -77 -46 -106 -31 -72 -35 -74 -35 -9 0 135 38 210 90 177z m619 -329 c-24
-21 -46 -38 -47 -36 -7 6 67 75 79 75 6 0 -8 -18 -32 -39z m-571 -286 c1 -120
-7 -118 -34 8 -17 84 -18 136 -2 230 l13 72 11 -100 c7 -55 12 -149 12 -210z
m220 -183 c-40 -95 -98 -140 -98 -76 0 19 5 24 24 24 23 0 66 44 66 67 0 8 20
33 26 33 1 0 -7 -22 -18 -48z"/>
</g>
</svg>
